<?xml version="1.0" encoding="utf-8"?>
<!-- Generator: Adobe Illustrator 16.0.0, SVG Export Plug-In . SVG Version: 6.00 Build 0)  -->
<!DOCTYPE svg PUBLIC "-//W3C//DTD SVG 1.1//EN" "http://www.w3.org/Graphics/SVG/1.1/DTD/svg11.dtd">
<svg version="1.1" id="Layer_1" xmlns="http://www.w3.org/2000/svg" xmlns:xlink="http://www.w3.org/1999/xlink" x="0px" y="0px"
	 width="546.096px" height="204.871px" viewBox="0 0 546.096 204.871" style="enable-background:new 0 0 546.096 204.871;"
	 xml:space="preserve">
<style type="text/css">
<![CDATA[
	.st0{fill:#E5402D;}
	.st1{fill:#FFFFFF;}
]]>
</style>
<rect x="6.605" y="31.945" transform="matrix(0.9925 -0.1219 0.1219 0.9925 -10.4484 34.0391)" class="st0" width="532.886" height="140.981"/>
<path class="st1" d="M90.327,124.382l-4.594,27.135l-19.91,2.443l0.88-4.99c1.851-0.292,3.233-0.899,4.146-1.825
	c0.91-0.918,1.66-2.984,2.237-6.197l6.609-37.262c0.159-1.021,0.205-1.776,0.145-2.261c-0.327-2.663-2.454-3.753-6.417-3.267
	l0.884-5.01l22.532-2.766c5.525-0.679,10.009-0.796,13.469-0.364c3.451,0.418,6.322,1.761,8.609,4.008
	c2.289,2.245,3.627,5.004,4.029,8.276c0.586,4.778-0.935,9.184-4.558,13.229c-3.6,4.039-10.327,6.673-20.138,7.877L90.327,124.382z
	 M91.216,119.372l4.119-0.507c5.014-0.615,8.465-2.621,10.337-6.016c1.88-3.4,2.606-6.94,2.157-10.607
	c-0.337-2.746-1.392-4.689-3.146-5.855c-1.765-1.17-4.244-1.546-7.439-1.154l-1.776,0.22L91.216,119.372z M122.492,131.8
	c-0.374-3.038,0.113-6.411,1.471-10.122c1.342-3.706,3.779-6.945,7.306-9.722c3.52-2.79,7.901-4.5,13.148-5.145
	c6.499-0.798,11.483,0.155,14.917,2.874c3.429,2.73,5.424,6.284,5.964,10.684c0.744,6.057-0.957,11.584-5.113,16.607
	c-4.126,5.027-9.859,7.989-17.15,8.886c-5.295,0.649-9.874-0.161-13.74-2.4C125.432,141.214,123.171,137.329,122.492,131.8z
	 M135.758,134.654c0.318,2.586,1.035,4.456,2.164,5.631c1.133,1.173,2.665,1.639,4.601,1.402c3.583-0.439,6.193-3.521,7.79-9.215
	c1.62-5.705,2.187-10.422,1.728-14.161c-0.348-2.836-1.142-4.837-2.386-5.979c-1.245-1.142-2.575-1.632-3.997-1.457
	c-3.814,0.469-6.527,3.689-8.137,9.654C135.923,126.5,135.335,131.201,135.758,134.654z M173.326,140.76l4.74-26.89
	c0.327-1.744,0.442-2.901,0.37-3.485c-0.049-0.403-0.184-0.702-0.417-0.878c-0.233-0.161-0.547-0.231-0.954-0.182
	c-0.926,0.114-1.852,0.927-2.784,2.447c-0.93,1.532-1.561,2.906-1.884,4.111l-4.307,0.53c3.08-8.72,7.847-13.472,14.312-14.268
	c2.371-0.289,4.34,0.071,5.919,1.113c1.56,1.052,2.473,2.547,2.715,4.514c0.228,1.855,0.007,4.456-0.642,7.802
	c4.812-10.205,10.86-15.742,18.153-16.637c2.5-0.307,4.689,0.136,6.559,1.325c1.881,1.19,2.998,3.256,3.356,6.175
	c0.198,1.619,0.113,3.776-0.258,6.473c5.316-10.763,11.861-16.616,19.619-17.568c2.372-0.292,4.461,0.032,6.243,0.988
	c1.77,0.966,2.783,2.416,3.02,4.353c0.146,1.182,0.006,2.948-0.411,5.293l-4.282,26.717c0,0-1.899,0.223-2.802,0.335
	c-2.229,0.273-4.219-0.082-5.976-1.072c-1.761-0.984-2.749-2.474-2.991-4.438c-0.111-0.906,0.046-2.593,0.464-5.08l2.405-13.479
	c0.266-1.472,0.355-2.492,0.288-3.044c-0.159-1.299-0.924-1.864-2.321-1.692c-3.001,0.368-6.402,3.713-10.182,10.02
	c-3.789,6.303-6.144,13.485-7.063,21.498l-12.768,1.569l4.012-22.834c0.369-2.011,0.505-3.474,0.395-4.369
	c-0.114-0.928-0.407-1.588-0.906-1.981c-0.48-0.398-1.174-0.544-2.042-0.438c-2.812,0.347-5.889,3.525-9.235,9.559
	c-3.34,6.019-5.825,13.336-7.454,21.934L173.326,140.76z M253.951,115.659c-0.374-3.038,0.125-6.413,1.472-10.122
	c1.349-3.707,3.802-6.949,7.323-9.726c3.519-2.788,7.899-4.499,13.137-5.142c6.516-0.801,11.485,0.155,14.911,2.873
	c3.442,2.73,5.438,6.284,5.979,10.683c0.743,6.058-0.966,11.587-5.112,16.607c-4.142,5.03-9.854,7.989-17.153,8.887
	c-5.307,0.649-9.873-0.16-13.747-2.4C256.905,125.072,254.629,121.188,253.951,115.659z M267.224,118.513
	c0.317,2.586,1.043,4.454,2.172,5.631c1.125,1.172,2.664,1.639,4.598,1.401c3.586-0.44,6.196-3.521,7.803-9.218
	c1.604-5.702,2.174-10.418,1.715-14.159c-0.349-2.836-1.146-4.835-2.384-5.978c-1.242-1.143-2.581-1.631-3.989-1.458
	c-3.826,0.47-6.536,3.689-8.139,9.654C267.397,110.356,266.799,115.06,267.224,118.513z M326.93,114.857
	c-4.018,6.095-8.766,9.5-14.263,10.176c-2.891,0.355-5.331-0.323-7.307-2.014c-1.992-1.703-3.195-4.318-3.633-7.88
	c-0.799-6.502,1-12.988,5.42-19.444c4.418-6.453,9.545-10.036,15.378-10.753c1.878-0.229,3.551-0.1,5.029,0.388
	c1.468,0.507,2.755,1.366,3.833,2.614l3.424-17.739c0.164-0.904,0.221-1.604,0.161-2.093c-0.191-1.562-2.022-2.142-5.495-1.717
	l0.787-4.675c4.643-0.568,7.783-1.016,9.454-1.354c1.639-0.337,3.64-0.921,5.982-1.772l4.103-0.504l-9.729,50.543
	c-0.4,2.019-0.556,3.322-0.482,3.912c0.145,1.188,0.758,1.72,1.846,1.586c0.667-0.081,1.457-0.627,2.346-1.629
	c0.879-1.007,1.65-2.229,2.305-3.658l4.818-0.592c-1.771,4.1-4.062,7.347-6.924,9.767c-2.83,2.43-5.842,3.831-9.032,4.224
	c-2.269,0.279-4.097-0.144-5.485-1.269c-1.386-1.113-2.205-2.701-2.459-4.763C326.967,115.888,326.939,115.438,326.93,114.857z
	 M314.491,111.414c0.22,1.785,0.699,3.099,1.47,3.935c0.757,0.825,1.777,1.165,3.08,1.006c1.859-0.229,3.686-1.426,5.506-3.585
	c1.81-2.157,3.217-5.587,4.211-10.261c0.995-4.684,1.395-7.821,1.197-9.416c-0.142-1.151-0.729-2.131-1.771-2.924
	c-1.039-0.796-2.199-1.127-3.462-0.972c-1.495,0.184-3.005,1.243-4.527,3.137c-1.515,1.9-2.915,5.033-4.185,9.387
	C314.738,106.075,314.23,109.3,314.491,111.414z M353.811,103.396c-0.373-3.036,0.116-6.411,1.464-10.12
	c1.354-3.709,3.789-6.947,7.32-9.724c3.51-2.79,7.896-4.499,13.141-5.144c6.501-0.798,11.484,0.154,14.919,2.873
	c3.435,2.73,5.42,6.286,5.96,10.685c0.744,6.057-0.967,11.588-5.11,16.608c-4.116,5.024-9.858,7.989-17.138,8.883
	c-5.31,0.652-9.877-0.159-13.754-2.399C356.748,112.814,354.49,108.927,353.811,103.396z M367.078,106.251
	c0.318,2.586,1.045,4.457,2.16,5.633c1.139,1.171,2.662,1.639,4.615,1.399c3.566-0.439,6.184-3.521,7.777-9.215
	c1.609-5.701,2.182-10.42,1.722-14.159c-0.348-2.838-1.13-4.838-2.364-5.979c-1.256-1.142-2.592-1.631-3.998-1.458
	c-3.821,0.469-6.547,3.693-8.135,9.654C367.251,98.098,366.654,102.798,367.078,106.251z M402.155,112.665l6.788-38.598
	c0,0,1.414-0.229,3.09-0.114c1.801,0.114,3.25,0.163,4.357,1.179c1.107,1.015,1.772,2.394,1.99,4.157
	c0.234,1.912-0.104,5.922-1.011,12.028c5.075-12.636,10.046-19.254,14.937-19.853c1.447-0.179,2.723,0.126,3.818,0.954
	c1.109,0.813,1.76,2.063,1.967,3.737c0.25,2.041-0.117,3.924-1.066,5.665c-0.976,1.766-2.298,2.741-4.006,2.951
	c-1.484,0.183-2.676-0.31-3.623-1.446c-0.715-0.827-1.361-1.207-1.938-1.137c-2.002,0.245-4.344,3.738-7.003,10.47
	c-2.671,6.737-4.409,12.863-5.196,18.396L402.155,112.665z M440.248,92.785c-0.373-3.037,0.133-6.414,1.473-10.122
	c1.35-3.708,3.783-6.947,7.312-9.724c3.528-2.792,7.9-4.5,13.14-5.143c6.521-0.802,11.5,0.152,14.925,2.872
	c3.437,2.729,5.417,6.286,5.957,10.684c0.744,6.058-0.963,11.587-5.098,16.607c-4.141,5.028-9.854,7.988-17.15,8.884
	c-5.309,0.652-9.887-0.157-13.736-2.4C443.203,102.197,440.927,98.314,440.248,92.785z M453.513,95.639
	c0.318,2.586,1.035,4.457,2.176,5.63c1.113,1.176,2.654,1.641,4.602,1.4c3.584-0.439,6.183-3.519,7.795-9.215
	c1.598-5.702,2.176-10.419,1.717-14.16c-0.349-2.836-1.153-4.834-2.394-5.976c-1.235-1.144-2.574-1.632-3.981-1.459
	c-3.822,0.469-6.541,3.69-8.145,9.654C453.695,87.482,453.089,92.186,453.513,95.639z"/>
</svg>
