<?xml version="1.0" encoding="UTF-8" standalone="no"?>
<svg width="547px" height="205px" viewBox="0 0 547 205" version="1.1" xmlns="http://www.w3.org/2000/svg" xmlns:xlink="http://www.w3.org/1999/xlink" xmlns:sketch="http://www.bohemiancoding.com/sketch/ns">
    <title>Slice 1</title>
    <description>Created with Sketch (http://www.bohemiancoding.com/sketch)</description>
    <defs></defs>
    <g id="Page-1" stroke="none" stroke-width="1" fill="none" fill-rule="evenodd" sketch:type="MSPage">
        <g id="pomodoro-logo-red" sketch:type="MSLayerGroup" transform="translate(0.000000, -1.000000)">
            <rect d="M6.60683694,32.9342481 L6.60683694,173.909317 L539.470418,173.909317 L539.470418,32.9342481 L6.60683694,32.9342481 Z M6.60683694,32.9342481" id="Rectangle" fill="#E5402D" sketch:type="MSShapeGroup" transform="translate(273.038627, 103.421783) rotate(-7.002066) translate(-273.038627, -103.421783) " x="6.60683694" y="32.9342481" width="532.863581" height="140.975069"></rect>
            <path d="M90.327,125.382 L85.733,152.517 L65.823,154.96 L66.703,149.97 C68.554,149.678 69.936,149.071 70.849,148.145 C71.759,147.227 72.509,145.161 73.086,141.948 L79.695,104.686 C79.854,103.665 79.9,102.91 79.84,102.425 C79.513,99.762 77.386,98.672 73.423,99.158 L74.307,94.148 L96.839,91.382 C102.364,90.703 106.848,90.586 110.308,91.018 C113.759,91.436 116.63,92.779 118.917,95.026 C121.206,97.271 122.544,100.03 122.946,103.302 C123.532,108.08 122.011,112.486 118.388,116.531 C114.788,120.57 108.061,123.204 98.25,124.408 L90.327,125.382 L90.327,125.382 L90.327,125.382 L90.327,125.382 Z M91.216,120.372 L95.335,119.865 C100.349,119.25 103.8,117.244 105.672,113.849 C107.552,110.449 108.278,106.909 107.829,103.242 C107.492,100.496 106.437,98.553 104.683,97.387 C102.918,96.217 100.439,95.841 97.244,96.233 L95.468,96.453 L91.216,120.372 L91.216,120.372 L91.216,120.372 L91.216,120.372 Z M122.492,132.8 C122.118,129.762 122.605,126.389 123.963,122.678 C125.305,118.972 127.742,115.733 131.269,112.956 C134.789,110.166 139.17,108.456 144.417,107.811 C150.916,107.013 155.9,107.966 159.334,110.685 C162.763,113.415 164.758,116.969 165.298,121.369 C166.042,127.426 164.341,132.953 160.185,137.976 C156.059,143.003 150.326,145.965 143.035,146.862 C137.74,147.511 133.161,146.701 129.295,144.462 C125.432,142.214 123.171,138.329 122.492,132.8 C122.492,132.8 123.171,138.329 122.492,132.8 L122.492,132.8 L122.492,132.8 Z M135.758,135.654 C136.076,138.24 136.793,140.11 137.922,141.285 C139.055,142.458 140.587,142.924 142.523,142.687 C146.106,142.248 148.716,139.166 150.313,133.472 C151.933,127.767 152.5,123.05 152.041,119.311 C151.693,116.475 150.899,114.474 149.655,113.332 C148.41,112.19 147.08,111.7 145.658,111.875 C141.844,112.344 139.131,115.564 137.521,121.529 C135.923,127.5 135.335,132.201 135.758,135.654 C135.758,135.654 135.335,132.201 135.758,135.654 L135.758,135.654 L135.758,135.654 Z M173.326,141.76 L178.066,114.87 C178.393,113.126 178.508,111.969 178.436,111.385 C178.387,110.982 178.252,110.683 178.019,110.507 C177.786,110.346 177.472,110.276 177.065,110.325 C176.139,110.439 175.213,111.252 174.281,112.772 C173.351,114.304 172.72,115.678 172.397,116.883 L168.09,117.413 C171.17,108.693 175.937,103.941 182.402,103.145 C184.773,102.856 186.742,103.216 188.321,104.258 C189.881,105.31 190.794,106.805 191.036,108.772 C191.264,110.627 191.043,113.228 190.394,116.574 C195.206,106.369 201.254,100.832 208.547,99.937 C211.047,99.63 213.236,100.073 215.106,101.262 C216.987,102.452 218.104,104.518 218.462,107.437 C218.66,109.056 218.575,111.213 218.204,113.91 C223.52,103.147 230.065,97.294 237.823,96.342 C240.195,96.05 242.284,96.374 244.066,97.33 C245.836,98.296 246.849,99.746 247.086,101.683 C247.232,102.865 247.092,104.631 246.675,106.976 L242.393,133.693 C242.393,133.693 240.494,133.916 239.591,134.028 C237.362,134.301 235.372,133.946 233.615,132.956 C231.854,131.972 230.866,130.482 230.624,128.518 C230.513,127.612 230.67,125.925 231.088,123.438 L233.493,109.959 C233.759,108.487 233.848,107.467 233.781,106.915 C233.622,105.616 232.857,105.051 231.46,105.223 C228.459,105.591 225.058,108.936 221.278,115.243 C217.489,121.546 215.134,128.728 214.215,136.741 L201.447,138.31 L205.459,115.476 C205.828,113.465 205.964,112.002 205.854,111.107 C205.74,110.179 205.447,109.519 204.948,109.126 C204.468,108.728 203.774,108.582 202.906,108.688 C200.094,109.035 197.017,112.213 193.671,118.247 C190.331,124.266 187.846,131.583 186.217,140.181 L173.326,141.76 L173.326,141.76 L173.326,141.76 L173.326,141.76 Z M253.951,116.659 C253.577,113.621 254.076,110.246 255.423,106.537 C256.772,102.83 259.225,99.588 262.746,96.811 C266.265,94.023 270.645,92.312 275.883,91.669 C282.399,90.868 287.368,91.824 290.794,94.542 C294.236,97.272 296.232,100.826 296.773,105.225 C297.516,111.283 295.807,116.812 291.661,121.832 C287.519,126.862 281.807,129.821 274.508,130.719 C269.201,131.368 264.635,130.559 260.761,128.319 C256.905,126.072 254.629,122.188 253.951,116.659 C253.951,116.659 254.629,122.188 253.951,116.659 L253.951,116.659 L253.951,116.659 Z M267.224,119.513 C267.541,122.099 268.267,123.967 269.396,125.144 C270.521,126.316 272.06,126.783 273.994,126.545 C277.58,126.105 280.19,123.024 281.797,117.327 C283.401,111.625 283.971,106.909 283.512,103.168 C283.163,100.332 282.366,98.333 281.128,97.19 C279.886,96.047 278.547,95.559 277.139,95.732 C273.313,96.202 270.603,99.421 269,105.386 C267.397,111.356 266.799,116.06 267.224,119.513 C267.224,119.513 266.799,116.06 267.224,119.513 L267.224,119.513 L267.224,119.513 Z M326.93,115.857 C322.912,121.952 318.164,125.357 312.667,126.033 C309.776,126.388 307.336,125.71 305.36,124.019 C303.368,122.316 302.165,119.701 301.727,116.139 C300.928,109.637 302.727,103.151 307.147,96.695 C311.565,90.242 316.692,86.659 322.525,85.942 C324.403,85.713 326.076,85.842 327.554,86.33 C329.022,86.837 330.309,87.696 331.387,88.944 L334.811,71.205 C334.975,70.301 335.032,69.601 334.972,69.112 C334.781,67.55 332.95,66.97 329.477,67.395 L330.264,62.72 C334.907,62.152 338.047,61.704 339.718,61.366 C341.357,61.029 343.358,60.445 345.7,59.594 L349.803,59.09 L340.074,109.633 C339.674,111.652 339.518,112.955 339.592,113.545 C339.737,114.733 340.35,115.265 341.438,115.131 C342.105,115.05 342.895,114.504 343.784,113.502 C344.663,112.495 345.434,111.273 346.089,109.844 L350.907,109.252 C349.136,113.352 346.845,116.599 343.983,119.019 C341.153,121.449 338.141,122.85 334.951,123.243 C332.682,123.522 330.854,123.099 329.466,121.974 C328.08,120.861 327.261,119.273 327.007,117.211 C326.967,116.888 326.939,116.438 326.93,115.857 C326.93,115.857 326.939,116.438 326.93,115.857 L326.93,115.857 L326.93,115.857 Z M314.491,112.414 C314.711,114.199 315.19,115.513 315.961,116.349 C316.718,117.174 317.738,117.514 319.041,117.355 C320.9,117.126 322.727,115.929 324.547,113.77 C326.357,111.613 327.764,108.183 328.758,103.509 C329.753,98.825 330.153,95.688 329.955,94.093 C329.813,92.942 329.226,91.962 328.184,91.169 C327.145,90.373 325.985,90.042 324.722,90.197 C323.227,90.381 321.717,91.44 320.195,93.334 C318.68,95.234 317.28,98.367 316.01,102.721 C314.738,107.075 314.23,110.3 314.491,112.414 C314.491,112.414 314.23,110.3 314.491,112.414 L314.491,112.414 L314.491,112.414 Z M353.811,104.396 C353.438,101.36 353.927,97.985 355.275,94.276 C356.629,90.567 359.064,87.329 362.595,84.552 C366.105,81.762 370.491,80.053 375.736,79.408 C382.237,78.61 387.22,79.562 390.655,82.281 C394.09,85.011 396.075,88.567 396.615,92.966 C397.359,99.023 395.648,104.554 391.505,109.574 C387.389,114.598 381.647,117.563 374.367,118.457 C369.057,119.109 364.49,118.298 360.613,116.058 C356.748,113.814 354.49,109.927 353.811,104.396 C353.811,104.396 354.49,109.927 353.811,104.396 L353.811,104.396 L353.811,104.396 Z M367.078,107.251 C367.396,109.837 368.123,111.708 369.238,112.884 C370.377,114.055 371.9,114.523 373.853,114.283 C377.419,113.844 380.037,110.762 381.63,105.068 C383.239,99.367 383.812,94.648 383.352,90.909 C383.004,88.071 382.222,86.071 380.988,84.93 C379.732,83.788 378.396,83.299 376.99,83.472 C373.169,83.941 370.443,87.165 368.855,93.126 C367.251,99.098 366.654,103.798 367.078,107.251 C367.078,107.251 366.654,103.798 367.078,107.251 L367.078,107.251 L367.078,107.251 Z M402.155,113.665 L408.943,75.067 C408.943,75.067 410.357,74.838 412.033,74.953 C413.834,75.067 415.283,75.116 416.39,76.132 C417.497,77.147 418.162,78.526 418.38,80.289 C418.614,82.201 418.276,86.211 417.369,92.317 C422.444,79.681 427.415,73.063 432.306,72.464 C433.753,72.285 435.029,72.59 436.124,73.418 C437.233,74.231 437.884,75.481 438.091,77.155 C438.341,79.196 437.974,81.079 437.025,82.82 C436.049,84.586 434.727,85.561 433.019,85.771 C431.535,85.954 430.343,85.461 429.396,84.325 C428.681,83.498 428.035,83.118 427.458,83.188 C425.456,83.433 423.114,86.926 420.455,93.658 C417.784,100.395 416.046,106.521 415.259,112.054 L402.155,113.665 L402.155,113.665 L402.155,113.665 L402.155,113.665 Z M440.248,93.785 C439.875,90.748 440.381,87.371 441.721,83.663 C443.071,79.955 445.504,76.716 449.033,73.939 C452.561,71.147 456.933,69.439 462.173,68.796 C468.694,67.994 473.673,68.948 477.098,71.668 C480.535,74.397 482.515,77.954 483.055,82.352 C483.799,88.41 482.092,93.939 477.957,98.959 C473.816,103.987 468.103,106.947 460.807,107.843 C455.498,108.495 450.92,107.686 447.071,105.443 C443.203,103.197 440.927,99.314 440.248,93.785 C440.248,93.785 440.927,99.314 440.248,93.785 L440.248,93.785 L440.248,93.785 Z M453.513,96.639 C453.831,99.225 454.548,101.096 455.689,102.269 C456.802,103.445 458.343,103.91 460.291,103.669 C463.875,103.23 466.474,100.15 468.086,94.454 C469.684,88.752 470.262,84.035 469.803,80.294 C469.454,77.458 468.65,75.46 467.409,74.318 C466.174,73.174 464.835,72.686 463.428,72.859 C459.606,73.328 456.887,76.549 455.283,82.513 C453.695,88.482 453.089,93.186 453.513,96.639 C453.513,96.639 453.089,93.186 453.513,96.639 L453.513,96.639 L453.513,96.639 Z M453.513,96.639" id="Shape" fill="#FFFFFF" sketch:type="MSShapeGroup"></path>
        </g>
    </g>
</svg>